<?xml version="1.0" encoding="UTF-8"?>
<svg id="Layer_2" data-name="Layer 2" xmlns="http://www.w3.org/2000/svg" viewBox="0 0 615.47 24.87" fill="#e7ff00">
  <g id="Layer_1-2" data-name="Layer 1">
    <g>
      <path d="M224.85,24.86v-15.79c0-3.52-1.25-5.31-3.87-5.31h-7.99v21.1h-2.38V3.76h-11.86v21.1h-2.44V1.05h25.17c3.92,0,5.78,2.6,5.78,7.74v16.07h-2.41Z"/>
      <path d="M235.04,24.86c-3.23,0-4.42-1.9-4.42-5.38v-2.78c0-3.48,1.19-5.38,4.42-5.38h18.08v-2.25c0-3.55-1.25-5.31-3.87-5.31h-18.14V1.05h18.6c3.98,0,5.81,2.57,5.81,7.74v16.07h-20.49ZM253.12,13.61h-17.27c-2.06,0-2.82,1.23-2.82,3.55v1.65c0,2.32.76,3.59,2.82,3.59h17.27v-8.79Z"/>
      <path d="M264.63,24.86c-4.01,0-5.87-2.57-5.87-7.74v-8.34c0-5.17,1.86-7.74,5.87-7.74h17.35v2.71h-16.89c-2.67,0-3.9,1.76-3.9,5.31v7.77c0,3.52,1.22,5.31,3.9,5.31h16.89v2.71h-17.35Z"/>
      <path d="M308.47,24.86c-.29-.28-.46-.7-.46-1.55v-4.29c0-2.57-1.4-3.48-3.43-3.48h-16.8v9.32h-2.44V1.05h20.38c3.23,0,4.42,1.9,4.42,5.38v2.85c0,4.15-2.06,4.82-3.26,4.96,1.37.14,3.55.92,3.55,4.78v4.29c0,.84.17,1.27.46,1.55h-2.41ZM307.72,7.07c0-2.29-.76-3.55-2.82-3.55h-17.12v9.74h16.74c1.92,0,3.2-.84,3.2-3.52v-2.67Z"/>
      <path d="M319.12,24.86c-4.01,0-5.87-2.57-5.87-7.74v-8.34c0-5.17,1.86-7.74,5.87-7.74h13.26c3.98,0,5.81,2.57,5.81,7.74v8.34c0,5.17-1.83,7.74-5.81,7.74h-13.26ZM335.78,9.07c0-3.55-1.25-5.31-3.9-5.31h-12.3c-2.67,0-3.9,1.76-3.9,5.31v7.77c0,3.52,1.22,5.31,3.9,5.31h12.3c2.65,0,3.9-1.79,3.9-5.31v-7.77Z"/>
      <path d="M357.85,24.86c-4.01,0-5.87-2.57-5.87-7.74v-8.34c0-5.17,1.86-7.74,5.87-7.74h17.35v2.71h-16.89c-2.67,0-3.9,1.76-3.9,5.31v7.77c0,3.52,1.22,5.31,3.9,5.31h16.89v2.71h-17.35Z"/>
      <path d="M382.85,24.86c-3.23,0-4.42-1.9-4.42-5.38v-2.78c0-3.48,1.19-5.38,4.42-5.38h18.08v-2.25c0-3.55-1.25-5.31-3.87-5.31h-18.14V1.05h18.6c3.98,0,5.81,2.57,5.81,7.74v16.07h-20.49ZM400.93,13.61h-17.27c-2.06,0-2.82,1.23-2.82,3.55v1.65c0,2.32.76,3.59,2.82,3.59h17.27v-8.79Z"/>
      <path d="M412.51,24.86c-3.95,0-5.81-2.57-5.81-7.74V1.05h2.44v15.79c0,3.52,1.22,5.31,3.84,5.31h14.65v2.71h-15.12Z"/>
      <path d="M435.91,24.86c-4.01,0-5.87-2.57-5.87-7.74v-8.34c0-5.17,1.86-7.74,5.87-7.74h17.35v2.71h-16.89c-2.67,0-3.9,1.76-3.9,5.31v7.77c0,3.52,1.22,5.31,3.9,5.31h16.89v2.71h-17.35Z"/>
      <path d="M462.31,24.86c-3.92,0-5.81-2.6-5.81-7.74V1.05h2.44v15.79c0,3.52,1.25,5.31,3.87,5.31h15.55V1.05h2.38v23.81h-18.43Z"/>
      <path d="M490.02,24.86c-3.95,0-5.81-2.57-5.81-7.74V1.05h2.44v15.79c0,3.52,1.22,5.31,3.84,5.31h14.65v2.71h-15.12Z"/>
      <path d="M512.09,24.86c-3.23,0-4.42-1.9-4.42-5.38v-2.78c0-3.48,1.19-5.38,4.42-5.38h18.08v-2.25c0-3.55-1.25-5.31-3.87-5.31h-18.14V1.05h18.6c3.98,0,5.81,2.57,5.81,7.74v16.07h-20.49ZM530.17,13.61h-17.27c-2.06,0-2.82,1.23-2.82,3.55v1.65c0,2.32.76,3.59,2.82,3.59h17.27v-8.79Z"/>
      <path d="M545.99,24.86V3.76h-10.9V1.05h24.18v2.71h-10.9v21.1h-2.38Z"/>
      <path d="M567.5,24.86c-4.01,0-5.87-2.57-5.87-7.74v-8.34c0-5.17,1.86-7.74,5.87-7.74h13.26c3.98,0,5.81,2.57,5.81,7.74v8.34c0,5.17-1.83,7.74-5.81,7.74h-13.26ZM584.16,9.07c0-3.55-1.25-5.31-3.9-5.31h-12.3c-2.67,0-3.9,1.76-3.9,5.31v7.77c0,3.52,1.22,5.31,3.9,5.31h12.3c2.65,0,3.9-1.79,3.9-5.31v-7.77Z"/>
      <path d="M613.06,24.86c-.29-.28-.46-.7-.46-1.55v-4.29c0-2.57-1.4-3.48-3.43-3.48h-16.8v9.32h-2.44V1.05h20.38c3.23,0,4.42,1.9,4.42,5.38v2.85c0,4.15-2.06,4.82-3.26,4.96,1.37.14,3.55.92,3.55,4.78v4.29c0,.84.17,1.27.46,1.55h-2.41ZM612.3,7.07c0-2.29-.76-3.55-2.82-3.55h-17.12v9.74h16.74c1.92,0,3.2-.84,3.2-3.52v-2.67Z"/>
    </g>
    <g>
      <path d="M5.77,18.7v6.17H0V0h26.04c4.26,0,5.77,1.98,5.77,5.62v6.98c0,4.3-1.51,6.1-5.77,6.1H5.77ZM26.04,6.98c0-1.43-.59-2.17-2.09-2.17H5.77v9.18h18.18c1.51,0,2.09-.74,2.09-2.35v-4.67Z"/>
      <path d="M60.2,24.87v-10.39h-19.76v10.39h-5.77V0h5.77v9.51h19.76V0h5.77v24.87h-5.77Z"/>
      <path d="M84.34,24.87v-8.12L68.21,0h7.42l11.68,12.3L98.96,0h7.12l-15.98,16.82v8.04h-5.77Z"/>
      <path d="M105.94,24.87v-4.81h23.65c1.51,0,2.13-.77,2.13-2.24v-1.18c0-1.36-.59-2.2-2.09-2.2h-17.92c-4.22,0-5.77-2.02-5.77-5.66v-3.16c0-3.64,1.54-5.62,5.77-5.62h25.16v4.81h-23.06c-1.54,0-2.13.73-2.13,2.17v.99c0,1.4.59,2.2,2.13,2.2h17.89c4.26,0,5.8,2.02,5.8,5.66v3.42c0,3.64-1.54,5.62-5.8,5.62h-25.75Z"/>
      <path d="M140.98,24.87V0h5.77v24.87h-5.77Z"/>
      <path d="M158.21,24.87c-5.22,0-7.6-2.68-7.6-8.08v-8.7c0-5.4,2.39-8.08,7.6-8.08h16.12c5.18,0,7.6,2.68,7.6,8.08v11.46h3.16v5.33h-26.88ZM176.39,8.67c0-2.28-.99-3.38-3.05-3.38h-13.88c-2.13,0-3.08,1.1-3.08,3.38v7.53c0,2.2.96,3.34,3.08,3.34h16.93v-10.87Z"/>
    </g>
  </g>
</svg>